HIERARCHY
ROOT Hips
{
	OFFSET -3.958830 18.904000 13.208200
	CHANNELS 6 Xposition Yposition Zposition Zrotation Yrotation Xrotation 
	JOINT LHipJoint
	{
		OFFSET 0.000000 0.000000 0.000000
		CHANNELS 3 Zrotation Yrotation Xrotation
		JOINT LeftUpLeg
		{
			OFFSET 1.800000 -1.400000 0.085000
			CHANNELS 3 Zrotation Yrotation Xrotation
			JOINT LeftLeg
			{
				OFFSET 2.215000 -6.000000 0.000000
				CHANNELS 3 Zrotation Yrotation Xrotation
				JOINT LeftFoot
				{
					OFFSET 2.500000 -6.900000 0.000000
					CHANNELS 3 Zrotation Yrotation Xrotation
					JOINT LeftToeBase
					{
						OFFSET 0.200000 -0.500000 1.950000
						CHANNELS 3 Zrotation Yrotation Xrotation
						End Site
						{
							OFFSET 0.000000 0.000000 0.000000
						}
					}
				}
			}
		}
	}
	JOINT RHipJoint
	{
		OFFSET 0.000000 0.000000 0.000000
		CHANNELS 3 Zrotation Yrotation Xrotation
		JOINT RightUpLeg
		{
			OFFSET -1.800000 -1.400000 0.085000
			CHANNELS 3 Zrotation Yrotation Xrotation
			JOINT RightLeg
			{
				OFFSET -2.215000 -6.000000 0.000000
				CHANNELS 3 Zrotation Yrotation Xrotation
				JOINT RightFoot
				{
					OFFSET -2.500000 -6.900000 0.000000
					CHANNELS 3 Zrotation Yrotation Xrotation
					JOINT RightToeBase
					{
						OFFSET -0.200000 -0.500000 1.950000
						CHANNELS 3 Zrotation Yrotation Xrotation
						End Site
						{
							OFFSET 0.000000 0.000000 0.000000
						}
					}
				}
			}
		}
	}
	JOINT LowerBack
	{
		OFFSET 0.000000 0.000000 0.000000
		CHANNELS 3 Zrotation Yrotation Xrotation
		JOINT Spine
		{
			OFFSET -0.087000 1.940000 -0.288900
			CHANNELS 3 Zrotation Yrotation Xrotation
			JOINT Spine1
			{
				OFFSET 0.000000 1.950000 0.060000
				CHANNELS 3 Zrotation Yrotation Xrotation
				JOINT Neck
				{
					OFFSET 0.000000 0.000000 0.000000
					CHANNELS 3 Zrotation Yrotation Xrotation
					JOINT Neck1
					{
						OFFSET 0.000000 1.600000 0.340000
						CHANNELS 3 Zrotation Yrotation Xrotation
						JOINT Head
						{
							OFFSET 0.000000 1.667000 -0.240000
							CHANNELS 3 Zrotation Yrotation Xrotation
							End Site
							{
								OFFSET 0.000000 0.000000 0.000000
							}
						}
					}
				}
				JOINT LeftShoulder
				{
					OFFSET 0.000000 0.000000 0.000000
					CHANNELS 3 Zrotation Yrotation Xrotation
					JOINT LeftArm
					{
						OFFSET 2.700000 1.550000 -0.730000
						CHANNELS 3 Zrotation Yrotation Xrotation
						JOINT LeftForeArm
						{
							OFFSET 5.450000 0.000000 0.000000
							CHANNELS 3 Zrotation Yrotation Xrotation
							JOINT LeftHand
							{
								OFFSET 3.450000 0.000000 0.000000
								CHANNELS 3 Zrotation Yrotation Xrotation
								JOINT LeftHandIndex1
								{
									OFFSET 0.750000 0.000000 0.000000
									CHANNELS 3 Zrotation Yrotation Xrotation
									End Site
									{
										OFFSET 0.000000 0.000000 0.000000
									}
								}
							}
						}
					}
				}
				JOINT RightShoulder
				{
					OFFSET 0.000000 0.000000 0.000000
					CHANNELS 3 Zrotation Yrotation Xrotation
					JOINT RightArm
					{
						OFFSET -2.700000 1.550000 -0.730000
						CHANNELS 3 Zrotation Yrotation Xrotation
						JOINT RightForeArm
						{
							OFFSET -5.450000 0.000000 0.000000
							CHANNELS 3 Zrotation Yrotation Xrotation
							JOINT RightHand
							{
								OFFSET -3.450000 0.000000 0.000000
								CHANNELS 3 Zrotation Yrotation Xrotation
								JOINT RightHandIndex1
								{
									OFFSET -0.750000 0.000000 0.000000
									CHANNELS 3 Zrotation Yrotation Xrotation
									End Site
									{
										OFFSET 0.000000 0.000000 0.000000
									}
								}
							}
						}
					}
				}
			}
		}
	}
}
MOTION
Frames: 14
Frame Time: 0.016667
-1.864700 16.658370 -5.731250 -1.469577 3.747609 -12.819116 -15.132994 12.936765 3.696273 26.463153 -1.722984 -21.757944 -7.244776 14.556475 42.066939 0.443076 9.200462 1.115228 0.453730 0.463620 0.234200 18.298016 -11.058632 2.074619 -22.798651 1.343718 -21.640861 2.870555 -11.175499 46.761895 -0.715494 -7.491506 1.541415 0.381760 0.111350 0.109020 -3.750644 -1.434996 -8.411896 8.378320 -1.481587 20.009322 -2.684097 -0.090915 18.275190 0.447308 -1.395569 -13.245356 -6.357823 0.975268 47.269080 0.467800 -2.020050 -5.860010 2.402101 -41.313307 1.945145 -0.464866 -37.458365 0.950508 12.397940 -12.231346 -1.547241 -3.917806 3.038516 0.082920 0.094410 0.020730 0.157970 -2.928814 43.174201 3.477007 8.017812 40.626512 3.164418 -16.353499 15.141151 -3.178799 2.540861 -1.435353 -0.013100 0.196450 -0.100940 -0.017930 
-1.861960 16.673680 -5.713440 -1.442962 3.812141 -13.091233 -15.111477 13.009476 3.591528 26.102128 -1.672854 -21.162634 -6.719523 14.148971 41.763584 0.401050 9.049005 1.154365 0.484490 0.502030 0.252240 18.306248 -11.136202 2.039974 -22.855738 1.192908 -21.009939 2.769701 -11.099010 46.481046 -0.723381 -7.458023 1.543731 0.405810 0.095150 0.115450 -3.793266 -1.418336 -8.312325 8.592725 -1.579123 19.684192 -2.852436 -0.215397 18.487660 0.373301 -1.434867 -12.855211 -6.475386 0.946686 46.914101 0.535150 -2.078860 -6.758880 2.284649 -40.738443 1.788828 -0.666500 -37.997130 1.114718 12.858987 -11.590765 -1.653702 -3.922005 3.039308 0.090580 0.085340 0.035690 0.159880 -2.700625 42.494635 3.698549 8.152798 40.586637 3.082263 -16.961302 15.858266 -3.394142 2.500872 -1.447931 -0.003300 0.196170 -0.110260 -0.019970 
-1.871170 16.700010 -5.686600 -1.484242 3.927547 -13.369885 -15.087890 13.070019 3.481137 25.969829 -1.553348 -20.394565 -6.349713 13.742619 41.022709 0.360389 8.874781 1.215825 0.494700 0.517290 0.256070 18.319808 -11.220727 1.983041 -22.851566 0.933797 -19.911428 3.069822 -11.124118 45.590396 -0.711703 -7.385362 1.568918 0.419650 0.101440 0.117910 -3.848252 -1.378946 -8.180797 8.777219 -1.718920 18.951495 -3.192892 -0.388976 18.860132 0.291577 -1.364210 -12.404588 -6.341976 0.861729 46.216422 0.507730 -2.078590 -7.059620 1.808370 -39.754479 1.789910 -0.691565 -38.356805 0.714521 14.884126 -11.588107 -2.095028 -3.936889 3.047699 0.084800 0.092070 0.033860 0.164790 -2.110627 41.236737 4.270912 8.358129 40.153970 2.312377 -19.179246 17.834643 -4.177026 2.421932 -1.484861 -0.003700 0.203130 -0.113270 -0.018130 
-1.880050 16.739670 -5.644160 -1.334876 3.771261 -13.314875 -15.097854 13.133672 3.373768 25.823539 -1.334140 -19.367156 -6.594155 13.492265 39.532391 0.317508 8.667883 1.289442 0.513870 0.542860 0.260000 18.309313 -11.262908 1.908066 -23.018120 0.612243 -18.824516 3.423221 -11.030000 44.109412 -0.678582 -7.233755 1.617566 0.442640 0.108080 0.122630 -3.815010 -1.422070 -8.009645 8.364377 -1.652101 17.607598 -2.873167 -0.527741 19.184474 0.044341 -1.410994 -11.726620 -6.295656 0.875307 44.784310 0.619170 -2.034580 -7.425680 1.273268 -37.743555 2.129670 -1.659630 -38.700675 0.257324 19.168637 -14.017804 -3.188598 -3.916675 3.084586 0.071900 0.100820 0.028210 0.175020 -1.081476 39.224406 4.884961 9.059031 39.520055 0.983650 -23.631601 21.534335 -5.916403 2.304886 -1.545883 -0.001280 0.204380 -0.121780 -0.014530 
-1.874820 16.802140 -5.594800 -1.360638 3.257785 -13.306132 -15.095859 13.248288 3.227253 25.618998 -0.971573 -17.748124 -6.746744 13.065162 37.438919 0.252859 8.360925 1.397159 0.525000 0.555710 0.267830 18.295117 -11.379531 1.799348 -22.605041 0.288587 -17.499907 3.014957 -10.372896 42.074275 -0.619315 -6.907044 1.729498 0.457480 0.104400 0.125660 -3.788349 -1.406494 -7.780110 8.341181 -1.511566 16.330166 -2.710655 -0.531370 19.262267 0.139811 -1.424580 -10.908978 -6.117393 0.821693 43.370379 0.465090 -1.904500 -8.031730 -0.011745 -34.943945 2.682205 -2.686669 -38.564081 -0.416620 24.195239 -20.181535 -5.017292 -3.844805 3.090912 0.074320 0.103180 0.028580 0.175500 0.038587 36.405626 5.277136 9.134781 37.753530 -0.838969 -28.269096 29.021785 -8.318333 2.138018 -1.543894 -0.004890 0.204490 -0.124650 -0.020600 
-1.865670 16.878040 -5.554890 -1.429069 2.806945 -13.131223 -15.073349 13.314923 3.055826 25.302418 -0.607364 -16.353115 -6.642038 12.461653 35.115530 0.172274 7.992647 1.536234 0.524670 0.553820 0.257080 18.308554 -11.476221 1.745878 -22.441734 -0.030157 -16.423452 3.227279 -10.027834 39.816182 -0.556140 -6.636980 1.827420 0.470250 0.122560 0.128120 -3.831291 -1.318544 -7.553885 8.733476 -1.489641 15.330920 -3.049523 -0.574579 19.085290 0.251018 -1.530822 -9.812021 -5.926086 0.688301 40.943258 0.606250 -2.004200 -8.545350 -2.258820 -31.330894 3.061605 -3.057914 -37.352651 -1.825043 33.338312 -30.750218 -9.330399 -3.763675 3.038367 0.065470 0.118140 0.008190 0.178460 2.041820 32.720163 5.266994 8.997930 35.103608 -2.983662 -35.268315 40.239206 -12.832648 1.937624 -1.455952 -0.016090 0.208330 -0.116940 -0.022220 
-1.860960 16.945690 -5.507680 -1.347731 2.071323 -12.318058 -15.064517 13.353990 2.908593 24.909726 -0.211363 -15.042515 -6.897262 11.991159 32.408651 0.119860 7.646186 1.690723 0.500970 0.536510 0.218870 18.318685 -11.543582 1.692903 -22.030203 -0.291869 -15.913903 3.064625 -9.483491 37.552808 -0.462778 -6.348064 1.941984 0.477860 0.180460 0.141040 -3.844066 -1.230111 -7.304493 8.761895 -1.455864 13.715280 -3.231466 -0.663193 18.688278 0.288442 -1.878246 -8.685294 -5.971902 0.444024 37.588509 0.032830 -2.167320 -8.076260 -3.362725 -26.050362 3.111326 -4.353511 -35.028081 -1.751450 48.098895 -42.959331 -18.092667 -3.702055 2.866381 0.004650 0.173670 -0.044330 0.187670 3.074430 27.725163 4.566434 9.228948 32.363905 -3.704252 -47.528022 51.869533 -21.454812 1.713227 -1.238317 -0.022460 0.208350 -0.100070 -0.004390 
-1.842310 17.004310 -5.449890 -1.332069 1.241672 -11.578400 -15.031552 13.370993 2.782214 24.533566 0.101164 -13.706016 -7.121977 11.648704 30.319231 0.061197 7.405060 1.809523 0.503840 0.541570 0.207400 18.346904 -11.597110 1.680468 -21.979755 -0.596401 -15.214468 3.578495 -9.243209 34.992342 -0.397935 -6.095313 2.039871 0.506210 0.221520 0.144660 -3.918089 -1.116940 -7.111898 9.503667 -1.696253 12.757085 -4.048732 -0.853173 18.145897 0.453068 -2.418312 -7.821170 -6.264145 0.460235 33.921270 -0.334090 -2.092220 -8.756010 -3.985826 -20.203115 2.916055 -3.853337 -31.801771 -0.623987 71.903658 -51.342589 -34.005394 -3.640634 2.494945 -0.021670 0.209490 -0.079850 0.200250 3.306722 22.128922 3.645376 7.244899 29.249749 -3.229716 -69.252865 59.650928 -36.852340 1.425234 -0.713741 -0.042830 0.227150 -0.093620 -0.002630 
-1.827420 17.048570 -5.389210 -0.827304 0.516494 -10.273846 -15.023018 13.412564 2.704981 23.681197 0.304690 -12.928328 -7.497587 11.306101 28.225422 0.034689 7.152200 1.945650 0.463030 0.495820 0.163640 18.340980 -11.602542 1.712826 -22.360388 -0.777543 -15.211802 4.048157 -8.967419 32.445641 -0.306405 -5.850835 2.133973 0.497520 0.288100 0.158780 -3.907921 -1.116988 -6.996694 9.534735 -1.833734 11.705556 -4.768133 -0.843582 17.452434 0.672607 -2.929706 -7.993101 -6.483929 0.374751 30.149467 -0.968710 -2.014300 -8.011440 -4.760541 -14.532493 3.013309 -1.651732 -27.492804 1.785246 100.283952 -49.758691 -54.374400 -3.814738 2.445470 -0.077780 0.267780 -0.138350 0.208050 3.576400 16.812751 3.947563 2.585215 26.121745 -0.234330 -96.534604 56.312922 -57.516503 1.560588 -0.661830 -0.058690 0.224840 -0.071060 0.012300 
-1.803820 17.082410 -5.337020 -0.532617 0.278474 -8.574695 -15.013545 13.406504 2.671373 22.775094 0.206733 -12.966219 -7.829188 10.909573 26.544272 -0.026887 6.913309 2.053350 0.451580 0.492900 0.131650 18.345576 -11.573551 1.753327 -22.692982 -1.003514 -15.450940 4.610856 -8.745985 29.921145 -0.227834 -5.630381 2.216436 0.522260 0.346910 0.172330 -3.923361 -1.123901 -6.912704 9.824493 -2.317695 10.792754 -5.859097 -1.208950 15.752209 0.915317 -3.148100 -7.672694 -6.154610 0.490828 26.513429 -1.292150 -1.741650 -7.910600 -5.244742 -9.843787 2.366839 1.895965 -22.952784 2.829918 119.213390 -43.306879 -65.550758 -4.032609 2.799015 -0.131310 0.326910 -0.191130 0.217070 3.501893 12.057720 3.822246 -2.550009 21.905225 1.266654 -116.034124 50.581149 -74.158589 1.877719 -1.402024 -0.072220 0.230380 -0.052780 0.022600 
-1.777880 17.115320 -5.294860 -0.174811 -0.702663 -7.183450 -14.989142 13.411786 2.635003 21.869596 0.120287 -12.804073 -7.968702 10.563179 25.357254 -0.074604 6.721415 2.149799 0.447910 0.496990 0.120990 18.356779 -11.590484 1.796304 -22.685247 -1.088152 -15.764125 4.567864 -8.257542 27.684569 -0.164924 -5.365923 2.314700 0.545770 0.393320 0.178150 -3.958531 -1.054040 -6.848472 10.236353 -2.574476 10.124360 -6.850941 -1.421233 13.681255 1.276752 -3.533304 -7.009403 -6.317312 1.063324 24.326627 -1.744620 -1.203340 -7.879420 -6.046346 -6.474170 1.645026 4.569998 -17.760323 3.019299 129.436285 -37.658046 -68.270452 -4.145118 2.968519 -0.164270 0.369830 -0.222530 0.227520 3.528767 8.914958 3.131066 -7.993712 18.331873 1.492772 -129.052557 45.040346 -82.064118 1.987001 -1.804353 -0.089160 0.250510 -0.045600 0.028400 
-1.758690 17.142980 -5.270390 0.054634 -1.769750 -6.394829 -14.975037 13.408290 2.603014 21.267926 0.050900 -12.254023 -8.167021 10.270094 24.131156 -0.122429 6.576144 2.221372 0.437750 0.489270 0.125100 18.361038 -11.602822 1.832227 -22.713130 -1.211293 -15.910337 4.526777 -7.889200 25.834498 -0.118709 -5.176428 2.383795 0.561680 0.424290 0.186750 -3.968093 -0.981597 -6.803076 10.179389 -2.827089 9.306360 -7.446577 -1.823202 12.347490 1.795614 -3.167270 -6.355927 -5.526213 2.165885 23.919359 -2.525890 0.206620 -7.275520 -6.407866 -4.246544 1.062031 6.832024 -13.298019 3.459388 134.881632 -35.832935 -71.275821 -4.235773 3.029068 -0.184670 0.415400 -0.245710 0.223290 2.922692 6.329142 2.341660 -11.281236 17.116095 2.344484 -136.841935 41.497223 -86.331356 2.034483 -1.958833 -0.110640 0.257830 -0.035570 0.016390 
-1.739870 17.166240 -5.235400 0.293972 -2.062021 -6.159926 -14.962064 13.403784 2.549734 20.802222 0.062550 -11.367807 -8.210515 10.010115 23.094716 -0.132022 6.453861 2.291101 0.418650 0.470760 0.111380 18.364755 -11.641368 1.846645 -22.933723 -1.439841 -15.255870 4.538065 -7.650601 24.162734 -0.089079 -5.079341 2.431040 0.559780 0.452790 0.188560 -3.986885 -0.884234 -6.748294 10.129918 -2.784925 8.206845 -7.845188 -1.925044 12.055464 2.214401 -2.733159 -6.099432 -4.805265 2.584853 24.481958 -2.714380 0.689130 -6.106100 -6.040103 -3.073284 0.969296 7.642627 -11.177252 4.360462 137.880848 -36.359807 -75.620199 -4.291487 3.057815 -0.210610 0.447240 -0.270600 0.224210 1.788267 4.797542 1.883351 -13.627577 16.701646 3.214220 -142.667645 38.766525 -89.813047 2.077892 -2.043950 -0.120850 0.257040 -0.028040 0.018300 
-1.719640 17.191610 -5.208700 0.331273 -2.055273 -6.499267 -14.949713 13.423168 2.499024 20.616658 0.158251 -10.209014 -8.033726 9.718385 22.068210 -0.121349 6.331168 2.359964 0.395010 0.442180 0.105830 18.361024 -11.709593 1.832257 -22.910023 -1.689885 -13.632205 4.099401 -7.227382 22.166843 -0.077541 -4.951897 2.503380 0.537150 0.459600 0.186700 -3.997948 -0.799854 -6.702515 10.087388 -2.669783 7.551744 -8.077362 -1.833546 12.620131 2.619808 -2.096606 -6.152023 -3.860311 2.548165 25.752372 -2.872630 0.965030 -5.155310 -5.832806 -3.034769 1.069372 8.108895 -10.788136 4.891340 139.818084 -36.186306 -77.713221 -4.307761 3.061990 -0.216930 0.456440 -0.275540 0.220160 0.865721 4.227664 1.929364 -14.316655 16.333774 3.722215 -145.717064 36.284902 -90.048720 2.107217 -2.066892 -0.123870 0.251580 -0.025600 0.017770 
